curl
version=1
nRows=428
nColumns=3
inDegrees=yes
endheader
time	r_shoulder_elev	r_elbow_flex
10.1900	36.270475	116.676978
10.2000	36.244646	115.482345
10.2100	36.209990	114.263892
10.2200	36.166032	113.023294
10.2300	36.112336	111.762156
10.2400	36.048515	110.481995
10.2500	35.974232	109.184225
10.2600	35.889207	107.870142
10.2700	35.793220	106.540910
10.2800	35.686117	105.197546
10.2900	35.567814	103.840908
10.3000	35.438299	102.471692
10.3100	35.297636	101.090416
10.3200	35.145969	99.697421
10.3300	34.983522	98.292865
10.3400	34.810599	96.876725
10.3500	34.627585	95.448798
10.3600	34.434946	94.008703
10.3700	34.233227	92.555891
10.3800	34.023048	91.089652
10.3900	33.805099	89.609129
10.4000	33.580141	88.113329
10.4100	33.348993	86.601143
10.4200	33.112531	85.071367
10.4300	32.871680	83.522725
10.4400	32.627405	81.953895
10.4500	32.380702	80.363539
10.4600	32.132590	78.750338
10.4700	31.884101	77.113021
10.4800	31.636271	75.450403
10.4900	31.390130	73.761422
10.5000	31.146690	72.045175
10.5100	30.906939	70.300949
10.5200	30.671831	68.528261
10.5300	30.442275	66.726885
10.5400	30.219130	64.896882
10.5500	30.003196	63.038626
10.5600	29.795205	61.152824
10.5700	29.595820	59.240534
10.5800	29.405623	57.303173
10.5900	29.225118	55.342529
10.6000	29.054719	53.360756
10.6100	28.894752	51.360369
10.6200	28.745453	49.344237
10.6300	28.606964	47.315562
10.6400	28.479334	45.277861
10.6500	28.362520	43.234940
10.6600	28.256389	41.190860
10.6700	28.160720	39.149911
10.6800	28.075208	37.116571
10.6900	27.999467	35.095471
10.7000	27.933037	33.091351
10.7100	27.875391	31.109026
10.7200	27.825939	29.153332
10.7300	27.784039	27.229093
10.7400	27.749003	25.341066
10.7500	27.720107	23.493905
10.7600	27.696598	21.692111
10.7700	27.677706	19.939986
10.7800	27.662651	18.241600
10.7900	27.650655	16.600740
10.8000	27.640948	15.020880
10.8100	27.632781	13.505141
10.8200	27.625432	12.056262
10.8300	27.618214	10.676573
10.8400	27.610485	9.367974
10.8500	27.601653	8.131915
10.8600	27.591182	6.969388
10.8700	27.578599	5.880920
10.8800	27.563497	4.866573
10.8900	27.545539	3.925955
10.9000	27.524458	3.058227
10.9100	27.500061	2.262126
10.9200	27.472229	1.535987
10.9300	27.440913	0.877771
10.9400	27.406137	0.285099
10.9500	27.367991	0.000000
10.9600	27.326628	0.000000
10.9700	27.282264	0.000000
10.9800	27.235168	0.000000
10.9900	27.185658	0.000000
11.0000	27.134095	0.000000
11.0100	27.080880	0.000000
11.0200	27.026440	0.000000
11.0300	26.971228	0.000000
11.0400	26.915715	0.000000
11.0500	26.860380	0.000000
11.0600	26.805706	0.000000
11.0700	26.752172	0.000000
11.0800	26.700248	0.000000
11.0900	26.650389	0.000000
11.1000	26.603028	0.000000
11.1100	26.558573	0.000000
11.1200	26.517399	0.000000
11.1300	26.479848	0.000000
11.1400	26.446224	0.000000
11.1500	26.416789	0.000000
11.1600	26.391763	0.000000
11.1700	26.371320	0.000000
11.1800	26.355590	0.000000
11.1900	26.344657	0.000000
11.2000	26.338557	0.000000
11.2100	26.337285	0.000000
11.2200	26.340790	0.000000
11.2300	26.348983	0.000000
11.2400	26.361736	0.000000
11.2500	26.378883	0.000000
11.2600	26.400232	0.000000
11.2700	26.425559	0.000000
11.2800	26.454620	0.229361
11.2900	26.487154	0.662544
11.3000	26.522885	1.142841
11.3100	26.561533	1.673726
11.3200	26.602815	2.258592
11.3300	26.646456	2.900714
11.3400	26.692190	3.603199
11.3500	26.739769	4.368951
11.3600	26.788973	5.200624
11.3700	26.839606	6.100586
11.3800	26.891515	7.070877
11.3900	26.944585	8.113178
11.4000	26.998750	9.228776
11.4100	27.053997	10.418529
11.4200	27.110370	11.682848
11.4300	27.167972	13.021667
11.4400	27.226969	14.434431
11.4500	27.287591	15.920078
11.4600	27.350132	17.477038
11.4700	27.414949	19.103229
11.4800	27.482459	20.796062
11.4900	27.553136	22.552455
11.5000	27.627507	24.368853
11.5100	27.706142	26.241249
11.5200	27.789651	28.165220
11.5300	27.878674	30.135961
11.5400	27.973868	32.148330
11.5500	28.075905	34.196896
11.5600	28.185450	36.275994
11.5700	28.303161	38.379781
11.5800	28.429667	40.502296
11.5900	28.565565	42.637529
11.6000	28.711401	44.779482
11.6100	28.867663	46.922238
11.6200	29.034771	49.060022
11.6300	29.213062	51.187271
11.6400	29.402788	53.298688
11.6500	29.604103	55.389303
11.6600	29.817059	57.454519
11.6700	30.041600	59.490158
11.6800	30.277562	61.492498
11.6900	30.524668	63.458301
11.7000	30.782528	65.384835
11.7100	31.050644	67.269883
11.7200	31.328409	69.111749
11.7300	31.615115	70.909252
11.7400	31.909956	72.661714
11.7500	32.212040	74.368938
11.7600	32.520390	76.031190
11.7700	32.833960	77.649157
11.7800	33.151641	79.223923
11.7900	33.472276	80.756924
11.8000	33.794664	82.249910
11.8100	34.117580	83.704898
11.8200	34.439780	85.124135
11.8300	34.760017	86.510047
11.8400	35.077051	87.865197
11.8500	35.389662	89.192240
11.8600	35.696659	90.493875
11.8700	35.996892	91.772808
11.8800	36.289262	93.031703
11.8900	36.572729	94.273151
11.9000	36.846323	95.499623
11.9100	37.109151	96.713445
11.9200	37.360398	97.916761
11.9300	37.599341	99.111508
11.9400	37.825348	100.299392
11.9500	38.037880	101.481868
11.9600	38.236499	102.660125
11.9700	38.420862	103.835071
11.9800	38.590727	105.007328
11.9900	38.745950	106.177228
12.0000	38.886485	107.344808
12.0100	39.012379	108.509815
12.0200	39.123773	109.671716
12.0300	39.220897	110.829698
12.0400	39.304064	111.982687
12.0500	39.373670	113.129361
12.0600	39.430184	114.268165
12.0700	39.474148	115.397333
12.0800	39.506164	116.514911
12.0900	39.526895	117.618779
12.1000	39.537055	118.706683
12.1100	39.537401	119.776255
12.1200	39.528732	120.825050
12.1300	39.511873	121.850572
12.1400	39.487674	122.850305
12.1500	39.457003	123.821741
12.1600	39.420733	124.762409
12.1700	39.379740	125.669901
12.1800	39.334894	126.541900
12.1900	39.287048	127.376197
12.2000	39.237036	128.000000
12.2100	39.185661	128.000000
12.2200	39.133693	128.000000
12.2300	39.081858	128.000000
12.2400	39.030833	128.000000
12.2500	38.981243	128.000000
12.2600	38.933653	128.000000
12.2700	38.888564	128.000000
12.2800	38.846413	128.000000
12.2900	38.807564	128.000000
12.3000	38.772312	128.000000
12.3100	38.740880	128.000000
12.3200	38.713418	128.000000
12.3300	38.690005	128.000000
12.3400	38.670652	128.000000
12.3500	38.655305	128.000000
12.3600	38.643848	128.000000
12.3700	38.636109	128.000000
12.3800	38.631867	128.000000
12.3900	38.630854	128.000000
12.4000	38.632768	128.000000
12.4100	38.637275	128.000000
12.4200	38.644023	128.000000
12.4300	38.652642	128.000000
12.4400	38.662756	128.000000
12.4500	38.673990	128.000000
12.4600	38.685975	128.000000
12.4700	38.698356	128.000000
12.4800	38.710792	128.000000
12.4900	38.722967	128.000000
12.5000	38.734589	128.000000
12.5100	38.745392	128.000000
12.5200	38.755137	128.000000
12.5300	38.763613	127.683283
12.5400	38.770636	126.884314
12.5500	38.776046	126.041633
12.5600	38.779702	125.155427
12.5700	38.781481	124.225972
12.5800	38.781275	123.253657
12.5900	38.778981	122.239003
12.6000	38.774503	121.182681
12.6100	38.767742	120.085534
12.6200	38.758594	118.948588
12.6300	38.746944	117.773072
12.6400	38.732665	116.560425
12.6500	38.715612	115.312306
12.6600	38.695622	114.030599
12.6700	38.672508	112.717418
12.6800	38.646063	111.375102
12.6900	38.616057	110.006217
12.7000	38.582237	108.613544
12.7100	38.544329	107.200070
12.7200	38.502042	105.768976
12.7300	38.455066	104.323618
12.7400	38.403080	102.867509
12.7500	38.345755	101.404292
12.7600	38.282756	99.937717
12.7700	38.213750	98.471611
12.7800	38.138408	97.009846
12.7900	38.056414	95.556302
12.8000	37.967470	94.114835
12.8100	37.871297	92.689238
12.8200	37.767648	91.283201
12.8300	37.656308	89.900274
12.8400	37.537100	88.543826
12.8500	37.409892	87.217011
12.8600	37.274595	85.922727
12.8700	37.131176	84.663585
12.8800	36.979650	83.441874
12.8900	36.820090	82.259537
12.9000	36.652626	81.118143
12.9100	36.477442	80.018863
12.9200	36.294780	78.962461
12.9300	36.104938	77.949278
12.9400	35.908269	76.979225
12.9500	35.705178	76.051783
12.9600	35.496116	75.166008
12.9700	35.281585	74.320539
12.9800	35.062127	73.513611
12.9900	34.838322	72.743077
13.0000	34.610786	72.006429
13.0100	34.380162	71.300830
13.0200	34.147119	70.623145
13.0300	33.912345	69.969978
13.0400	33.676542	69.337717
13.0500	33.440419	68.722574
13.0600	33.204692	68.120635
13.0700	32.970072	67.527908
13.0800	32.737266	66.940375
13.0900	32.506965	66.354041
13.1000	32.279849	65.764986
13.1100	32.056572	65.169415
13.1200	31.837764	64.563707
13.1300	31.624026	63.944455
13.1400	31.415923	63.308514
13.1500	31.213983	62.653034
13.1600	31.018696	61.975494
13.1700	30.830503	61.273730
13.1800	30.649803	60.545957
13.1900	30.476946	59.790785
13.2000	30.312230	59.007230
13.2100	30.155903	58.194721
13.2200	30.008164	57.353097
13.2300	29.869156	56.482604
13.2400	29.738976	55.583881
13.2500	29.617666	54.657953
13.2600	29.505223	53.706206
13.2700	29.401596	52.730367
13.2800	29.306689	51.732479
13.2900	29.220364	50.714875
13.3000	29.142444	49.680144
13.3100	29.072716	48.631100
13.3200	29.010935	47.570750
13.3300	28.956824	46.502257
13.3400	28.910085	45.428903
13.3500	28.870394	44.354057
13.3600	28.837412	43.281133
13.3700	28.810781	42.213558
13.3800	28.790137	41.154736
13.3900	28.775104	40.108015
13.4000	28.765303	39.076652
13.4100	28.760354	38.063787
13.4200	28.759875	37.072413
13.4300	28.763488	36.105350
13.4400	28.770822	35.165222
13.4500	28.781510	34.254436
13.4600	28.795192	33.375161
13.4700	28.811518	32.529313
13.4800	28.830147	31.718537
13.4900	28.850747	30.944195
13.5000	28.872995	30.207355
13.5100	28.896577	29.508782
13.5200	28.921189	28.848933
13.5300	28.946536	28.227953
13.5400	28.972327	27.645670
13.5500	28.998283	27.101606
13.5600	29.024130	26.594974
13.5700	29.049598	26.124687
13.5800	29.074425	25.689372
13.5900	29.098355	25.287381
13.6000	29.121136	24.916807
13.6100	29.142522	24.575501
13.6200	29.162275	24.261095
13.6300	29.180160	23.971025
13.6400	29.195952	23.702553
13.6500	29.209434	23.452797
13.6600	29.220397	23.218755
13.6700	29.228645	22.997340
13.6800	29.233993	22.785403
13.6900	29.236270	22.579771
13.7000	29.235319	22.377269
13.7100	29.231002	22.174761
13.7200	29.223199	21.969170
13.7300	29.211807	21.757515
13.7400	29.196748	21.536938
13.7500	29.177964	21.304730
13.7600	29.155419	21.058357
13.7700	29.129103	20.795488
13.7800	29.099029	20.514012
13.7900	29.065236	20.212061
13.8000	29.027783	19.888027
13.8100	28.986759	19.540575
13.8200	28.942271	19.168653
13.8300	28.894451	18.771503
13.8400	28.843451	18.348663
13.8500	28.789443	17.899966
13.8600	28.732616	17.425544
13.8700	28.673177	16.925816
13.8800	28.611343	16.401483
13.8900	28.547344	15.853517
13.9000	28.481420	15.283145
13.9100	28.413816	14.691831
13.9200	28.344780	14.081259
13.9300	28.274561	13.453314
13.9400	28.203408	12.810054
13.9500	28.131565	12.153690
13.9600	28.059269	11.486563
13.9700	27.986750	10.811113
13.9800	27.914228	10.129864
13.9900	27.841912	9.445389
14.0000	27.769997	8.760292
14.0100	27.698667	8.077181
14.0200	27.628091	7.398645
14.0300	27.558422	6.727232
14.0400	27.489803	6.065425
14.0500	27.422359	5.415621
14.0600	27.356203	4.780116
14.0700	27.291435	4.161082
14.0800	27.228142	3.560553
14.0900	27.166399	2.980407
14.1000	27.106269	2.422357
14.1100	27.047807	1.887936
14.1200	26.991055	1.378488
14.1300	26.936049	0.895158
14.1400	26.882815	0.438889
14.1500	26.831371	0.010415
14.1600	26.781730	0.000000
14.1700	26.733897	0.000000
14.1800	26.687871	0.000000
14.1900	26.643645	0.000000
14.2000	26.601210	0.000000
14.2100	26.560550	0.000000
14.2200	26.521643	0.000000
14.2300	26.484468	0.000000
14.2400	26.448996	0.000000
14.2500	26.415196	0.000000
14.2600	26.383033	0.000000
14.2700	26.352470	0.000000
14.2800	26.323465	0.000000
14.2900	26.295974	0.000000
14.3000	26.269949	0.000000
14.3100	26.245340	0.000000
14.3200	26.222093	0.000000
14.3300	26.200152	0.000000
14.3400	26.179458	0.000000
14.3500	26.159949	0.000000
14.3600	26.141561	0.000000
14.3700	26.124228	0.000000
14.3800	26.107882	0.000000
14.3900	26.092454	0.000000
14.4000	26.077872	0.000000
14.4100	26.064064	0.000000
14.4200	26.050956	0.000000
14.4300	26.038474	0.000000
14.4400	26.026545	0.000000
14.4500	26.015093	0.000000
14.4600	26.004045	0.000000
